<svg width="1200" height="720" viewBox="0 0 1200 720" fill="none" xmlns="http://www.w3.org/2000/svg">
  <rect width="1200" height="720" rx="28" fill="#F8F7F3"/>
  <rect x="48" y="48" width="1104" height="624" rx="24" fill="#FFFFFF" stroke="#D7D4CB" stroke-width="2"/>
  <rect x="88" y="96" width="280" height="528" rx="18" fill="#F3F1EA"/>
  <rect x="408" y="96" width="328" height="528" rx="18" fill="#FBFAF7" stroke="#E0DDD5"/>
  <rect x="776" y="96" width="336" height="528" rx="18" fill="#0F172A"/>
  <rect x="112" y="128" width="132" height="14" rx="7" fill="#B2AA96"/>
  <rect x="112" y="168" width="216" height="84" rx="18" fill="#E7E2D7"/>
  <rect x="112" y="270" width="216" height="84" rx="18" fill="#E7E2D7"/>
  <rect x="112" y="372" width="216" height="84" rx="18" fill="#E7E2D7"/>
  <rect x="112" y="474" width="216" height="84" rx="18" fill="#E7E2D7"/>
  <rect x="440" y="132" width="180" height="16" rx="8" fill="#8C6A3B"/>
  <rect x="440" y="180" width="264" height="64" rx="18" fill="#F1ECE0"/>
  <rect x="440" y="266" width="264" height="64" rx="18" fill="#F1ECE0"/>
  <rect x="440" y="352" width="264" height="64" rx="18" fill="#F1ECE0"/>
  <rect x="440" y="438" width="264" height="64" rx="18" fill="#F1ECE0"/>
  <rect x="440" y="524" width="264" height="64" rx="18" fill="#F1ECE0"/>
  <rect x="808" y="128" width="126" height="16" rx="8" fill="#60A5FA"/>
  <rect x="808" y="186" width="272" height="58" rx="18" fill="#1E293B"/>
  <rect x="824" y="202" width="144" height="10" rx="5" fill="#8CB8FF"/>
  <rect x="824" y="218" width="220" height="10" rx="5" fill="#425B84"/>
  <rect x="808" y="268" width="272" height="58" rx="18" fill="#1E293B"/>
  <rect x="824" y="284" width="158" height="10" rx="5" fill="#8CB8FF"/>
  <rect x="824" y="300" width="232" height="10" rx="5" fill="#425B84"/>
  <rect x="808" y="350" width="272" height="58" rx="18" fill="#1E293B"/>
  <rect x="824" y="366" width="132" height="10" rx="5" fill="#8CB8FF"/>
  <rect x="824" y="382" width="216" height="10" rx="5" fill="#425B84"/>
  <rect x="808" y="432" width="272" height="120" rx="18" fill="#0B1220" stroke="#263247"/>
  <text x="600" y="650" text-anchor="middle" fill="#6B6458" font-family="Inter, Arial, sans-serif" font-size="26">
    Add your OpenClaw / Telegram screenshot here
  </text>
</svg>
